<?xml version="1.0" standalone="no"?>
<!DOCTYPE svg PUBLIC "-//W3C//DTD SVG 20010904//EN"
 "http://www.w3.org/TR/2001/REC-SVG-20010904/DTD/svg10.dtd">
<svg version="1.0" xmlns="http://www.w3.org/2000/svg"
 width="1280.000000pt" height="658.000000pt" viewBox="0 0 1280.000000 658.000000"
 preserveAspectRatio="xMidYMid meet">
<g transform="translate(0.000000,658.000000) scale(0.100000,-0.100000)"
fill="#000000" stroke="none">
<path d="M819 6576 c-3 -3 -39 -12 -80 -20 -323 -67 -575 -306 -661 -625 -32
-119 -29 -316 6 -436 15 -49 47 -128 72 -174 24 -47 41 -88 37 -91 -4 -4 -30
-13 -58 -19 -66 -16 -91 -33 -115 -81 -26 -50 -25 -59 6 -152 35 -107 72 -156
121 -160 30 -2 42 -10 61 -38 23 -34 26 -35 85 -35 60 0 62 -1 65 -28 2 -16
10 -31 17 -33 8 -3 57 4 110 16 77 18 116 22 204 18 137 -6 168 -21 195 -96
18 -52 19 -52 61 -52 32 0 51 -7 80 -30 34 -27 45 -30 110 -30 105 0 193 30
257 87 71 63 118 83 202 83 115 0 190 -25 386 -132 207 -114 867 -399 1054
-457 38 -12 181 -44 318 -71 137 -28 276 -61 310 -75 33 -14 122 -65 197 -113
75 -49 286 -178 470 -288 185 -110 357 -220 386 -246 45 -41 55 -57 66 -105
17 -72 32 -82 221 -158 79 -31 200 -82 271 -113 147 -64 139 -49 107 -211 -30
-149 -92 -315 -182 -492 -60 -119 -86 -160 -106 -169 -15 -7 -71 -30 -125 -51
-144 -58 -288 -132 -403 -210 -57 -38 -133 -85 -171 -104 -37 -19 -122 -80
-188 -135 -66 -55 -143 -111 -171 -125 -48 -25 -57 -25 -205 -23 -173 3 -164
5 -534 -117 -600 -199 -774 -306 -775 -478 0 -93 76 -184 172 -208 84 -20 250
-6 430 35 86 20 182 36 214 36 55 0 59 -2 100 -45 23 -25 49 -45 58 -45 32 0
63 47 95 143 18 54 44 111 58 128 51 60 61 62 383 70 462 11 550 27 732 133
59 34 262 86 338 86 56 0 59 -1 79 -35 31 -53 50 -51 436 48 99 26 232 53 295
62 110 14 298 53 627 129 84 20 230 51 324 71 94 19 186 42 205 51 18 9 64 41
101 73 113 94 136 108 200 125 204 51 1130 421 1930 770 l311 136 99 -36 c218
-79 491 -127 733 -128 l165 -1 80 -38 c44 -21 173 -90 287 -153 l207 -115 119
-207 c295 -508 440 -804 493 -1002 34 -128 69 -498 70 -731 0 -137 3 -144 47
-113 38 26 63 91 72 182 8 89 25 120 60 107 35 -13 125 -74 253 -169 168 -125
242 -169 256 -152 13 16 -5 44 -113 176 -47 57 -86 108 -86 112 0 21 35 3 100
-52 85 -71 222 -163 274 -185 40 -17 76 -12 76 10 0 7 -9 34 -20 60 -11 26
-20 60 -20 76 0 70 -90 190 -253 339 -254 231 -283 278 -432 715 -146 430
-202 579 -265 712 -79 165 -114 215 -266 378 -120 129 -249 254 -754 735 -101
96 -208 207 -237 247 -30 40 -120 133 -203 209 -83 75 -150 140 -150 144 0 5
-73 73 -162 152 -256 226 -374 373 -455 563 l-43 103 36 79 c79 171 147 331
171 398 39 114 40 175 3 422 -40 268 -42 279 -83 340 -41 62 -105 104 -209
138 -107 36 -199 77 -216 98 -13 15 -16 14 -43 -5 -27 -21 -32 -21 -136 -10
-147 16 -230 15 -348 -5 -95 -16 -102 -16 -138 2 -21 10 -39 16 -40 14 -1 -2
-9 -17 -17 -34 -20 -38 -70 -72 -137 -91 -40 -12 -57 -22 -63 -40 -14 -35 5
-118 40 -179 16 -29 30 -62 30 -73 0 -11 -18 -58 -40 -104 -44 -92 -63 -169
-49 -205 11 -28 -2 -64 -75 -213 -31 -63 -55 -124 -54 -135 2 -13 17 -24 48
-35 l45 -16 3 -76 c2 -52 7 -80 17 -88 20 -16 19 -49 -2 -91 -18 -36 -30 -170
-19 -214 4 -17 18 -31 41 -41 40 -16 135 -22 188 -11 58 12 60 -14 6 -69 -49
-50 -251 -209 -493 -388 l-159 -118 -211 -45 c-267 -57 -371 -62 -484 -20 -87
31 -159 71 -267 148 -44 31 -98 62 -120 68 -22 6 -108 15 -191 20 -163 10
-244 27 -338 70 -85 38 -133 48 -271 56 -146 8 -248 28 -477 94 -97 28 -207
58 -244 67 -75 17 -399 57 -602 74 -148 13 -188 24 -412 118 -80 33 -165 65
-190 72 -25 6 -144 65 -265 130 -239 129 -320 161 -535 208 -212 47 -560 110
-730 132 -95 12 -183 30 -228 45 -61 22 -102 28 -250 36 -230 12 -501 45 -533
65 -5 3 11 29 36 59 192 224 260 525 180 800 -67 230 -215 411 -424 519 -79
41 -131 58 -284 95 -46 11 -179 16 -188 7z"/>
</g>
</svg>
